<?xml version="1.0" encoding="utf-8"?>
<svg version="1.2" xmlns:xlink="http://www.w3.org/1999/xlink" width="100%" viewBox="0 0 424 424" baseProfile="tiny-ps" xmlns="http://www.w3.org/2000/svg">
  <title>tct_logo_svg_tiny</title>
<path fill="#F5EE31" stroke="none" d=" M1.000000,101.000000   C1.000000,67.333336 1.000000,34.166668 1.000000,1.000000   C129.333328,1.000000 257.666656,1.000000 386.000000,1.000000   C386.000000,142.333328 386.000000,283.666656 386.000000,425.000000   C257.666656,425.000000 129.333328,425.000000 1.000000,425.000000   C1.000000,317.166656 1.000000,209.333328 1.000000,101.000000  M373.388184,9.365491   C371.907593,9.243895 370.427002,9.016043 368.946411,9.015834   C252.037537,8.999358 135.128677,8.996668 18.219816,9.039411   C16.480268,9.040047 14.740932,9.621817 12.536534,10.620983   C12.536534,145.552505 12.536534,280.484039 12.536534,415.408417   C133.471741,415.408417 253.733597,415.408417 374.490723,415.408417   C374.490723,413.366638 374.490723,411.572693 374.490723,409.778778   C374.490753,278.115631 374.492584,146.452499 374.470459,14.789361   C374.470215,13.170336 374.162598,11.551363 373.388184,9.365491  z" />
<path fill="#020201" stroke="none" d=" M373.998444,9.932366   C374.162598,11.551363 374.470215,13.170336 374.470459,14.789361   C374.492584,146.452499 374.490753,278.115631 374.490723,409.778778   C374.490723,411.572693 374.490723,413.366638 374.490723,415.408417   C253.733597,415.408417 133.471741,415.408417 12.536534,415.408417   C12.536534,280.484039 12.536534,145.552505 13.237434,10.305179   C65.708664,9.991814 117.478989,10.003557 169.249313,9.994391   C237.499023,9.982308 305.748718,9.953809 373.998444,9.932366  M163.620148,203.626678   C175.426559,183.095444 187.232971,162.564209 199.913223,141.874527   C202.383514,142.116806 204.896210,142.147934 207.317444,142.634399   C228.714081,146.933395 246.190735,157.607712 259.741302,174.786606   C260.751343,176.067123 263.058716,176.912552 264.782349,176.945419   C275.103271,177.142181 285.429871,177.055191 295.754425,177.019547   C296.802338,177.015930 297.849274,176.721130 299.594055,176.455139   C279.503998,137.588120 247.600281,116.898460 205.066208,110.518547   C205.066208,92.690926 205.066208,74.918289 205.973007,56.918911   C239.954605,56.918911 273.936218,56.918911 307.917816,56.918911   C290.113953,47.055157 272.236542,38.038540 254.239319,29.267763   C251.534546,27.949615 248.270737,27.175602 245.263565,27.169790   C183.610626,27.050663 121.957382,27.078482 60.304214,27.090057   C59.146919,27.090275 57.989658,27.247896 55.638443,27.418921   C75.913971,36.829346 94.948265,45.794483 114.126335,54.440712   C117.465813,55.946281 121.395088,56.673302 125.080566,56.781036   C135.569321,57.087654 146.073227,56.844086 156.570099,56.938309   C158.078445,56.951847 159.580811,57.634335 160.921356,58.931828   C160.918625,76.941406 160.915894,94.950989 160.250458,113.318420   C159.630447,113.538940 159.025162,113.822678 158.388321,113.970894   C132.774963,119.932030 109.954430,131.002197 93.547562,152.185577   C74.366760,176.950470 64.623077,204.914307 72.796265,236.129242   C83.892319,278.507111 112.385750,304.530945 153.855942,317.019836   C157.290894,318.054260 160.718842,319.111877 164.179214,321.075684   C164.179214,336.195374 164.179214,351.315094 164.179214,367.093689   C129.744659,367.093689 95.696091,367.093689 60.399029,367.093689   C79.414970,376.585419 97.130539,385.497009 114.934105,394.229126   C117.208778,395.344788 119.941391,396.056732 122.463310,396.060822   C183.767075,396.160431 245.071014,396.140076 306.374939,396.127625   C307.714874,396.127380 309.054810,395.967712 311.460236,395.814575   C291.645569,386.549408 272.985687,377.713867 254.200928,369.152252   C251.164093,367.768127 247.584274,367.044556 244.234863,366.972534   C232.298798,366.715912 220.353882,366.872284 207.968353,366.872284   C207.968353,350.912079 207.968353,335.457825 208.782944,319.993195   C209.913147,319.724060 211.032242,319.389740 212.175156,319.195374   C239.859009,314.486694 263.291260,301.881622 282.208862,281.131104   C286.343140,276.596313 289.778687,271.424500 293.835236,266.157471   C292.127625,265.577057 291.679810,265.292969 291.231049,265.291534   C279.080750,265.252869 266.928772,265.144165 254.781784,265.340149   C253.050262,265.368042 251.052917,266.566223 249.669891,267.781769   C237.642792,278.352448 223.794678,285.088135 208.046051,287.065857   C208.046051,261.605103 208.046051,236.144333 208.046051,210.683563   C207.736023,210.646866 207.425995,210.610184 207.115967,210.573486   C193.647263,236.015686 180.178574,261.457886 165.937408,286.932953   C147.475403,283.113312 132.219498,273.847748 120.606522,259.099213   C106.045441,240.606567 100.716316,219.603577 107.171738,196.739883   C112.672569,177.257080 125.637489,163.071869 143.003860,153.119156   C148.506073,149.965836 154.865585,148.308426 160.886597,146.917236   C160.886597,166.791489 160.886597,186.665756 160.886597,206.540009   C161.160767,206.614319 161.434921,206.688629 161.709091,206.762924   C162.159210,205.846664 162.609329,204.930389 163.620148,203.626678  z" />
<path fill="#F5EE51" stroke="none" d=" M373.693298,9.648929   C305.748718,9.953809 237.499023,9.982308 169.249313,9.994391   C117.478989,10.003557 65.708664,9.991814 13.469914,9.960873   C14.740932,9.621817 16.480268,9.040047 18.219816,9.039411   C135.128677,8.996668 252.037537,8.999358 368.946411,9.015834   C370.427002,9.016043 371.907593,9.243895 373.693298,9.648929  z" />
<path fill="#FEFEFE" stroke="none" d=" M207.968353,320.003571   C207.968353,335.457825 207.968353,350.912079 207.968353,366.872284   C220.353882,366.872284 232.298798,366.715912 244.234863,366.972534   C247.584274,367.044556 251.164093,367.768127 254.200928,369.152252   C272.985687,377.713867 291.645569,386.549408 311.460236,395.814575   C309.054810,395.967712 307.714874,396.127380 306.374939,396.127625   C245.071014,396.140076 183.767075,396.160431 122.463310,396.060822   C119.941391,396.056732 117.208778,395.344788 114.934105,394.229126   C97.130539,385.497009 79.414970,376.585419 60.399029,367.093689   C95.696091,367.093689 129.744659,367.093689 164.179214,367.093689   C164.179214,351.315094 164.179214,336.195374 164.581223,320.464844   C179.311600,319.903870 193.639984,319.953735 207.968353,320.003571  z" />
<path fill="#585859" stroke="none" d=" M208.375641,319.998383   C193.639984,319.953735 179.311600,319.903870 164.566650,320.006348   C160.718842,319.111877 157.290894,318.054260 153.855942,317.019836   C112.385750,304.530945 83.892319,278.507111 72.796265,236.129242   C64.623077,204.914307 74.366760,176.950470 93.547562,152.185577   C109.954430,131.002197 132.774963,119.932030 158.388321,113.970894   C159.025162,113.822678 159.630447,113.538940 160.856598,113.203445   C161.645035,113.042778 161.827362,112.997093 162.383575,112.980865   C164.196152,112.660561 165.634872,112.310791 167.494232,111.986679   C177.926331,111.281769 187.937759,110.551208 198.200958,109.882439   C198.623734,109.919617 198.794785,109.894997 199.361145,109.956543   C200.829590,110.047302 201.902740,110.051888 203.277985,110.039482   C203.732620,109.677078 203.885178,109.331657 204.125244,108.525063   C204.226059,92.640945 204.216370,77.217911 204.288040,61.795250   C204.295258,60.244213 204.795013,58.695461 205.066208,57.145649   C205.066208,74.918289 205.066208,92.690926 205.066208,110.518547   C247.600281,116.898460 279.503998,137.588120 299.594055,176.455139   C297.849274,176.721130 296.802338,177.015930 295.754425,177.019547   C285.429871,177.055191 275.103271,177.142181 264.782349,176.945419   C263.058716,176.912552 260.751343,176.067123 259.741302,174.786606   C246.190735,157.607712 228.714081,146.933395 207.317444,142.634399   C204.896210,142.147934 202.383514,142.116806 199.249542,141.611557   C196.363937,141.258408 194.142014,141.168228 191.466431,141.008453   C183.044754,141.761124 175.076752,142.583389 166.775146,143.437866   C164.966110,143.976929 163.490631,144.483765 161.742889,145.033691   C161.257996,145.373337 161.045380,145.669891 160.832764,145.966446   C154.865585,148.308426 148.506073,149.965836 143.003860,153.119156   C125.637489,163.071869 112.672569,177.257080 107.171738,196.739883   C100.716316,219.603577 106.045441,240.606567 120.606522,259.099213   C132.219498,273.847748 147.475403,283.113312 166.541489,287.263916   C180.755753,290.796326 194.390503,291.537872 208.067932,288.003387   C223.794678,285.088135 237.642792,278.352448 249.669891,267.781769   C251.052917,266.566223 253.050262,265.368042 254.781784,265.340149   C266.928772,265.144165 279.080750,265.252869 291.231049,265.291534   C291.679810,265.292969 292.127625,265.577057 293.835236,266.157471   C289.778687,271.424500 286.343140,276.596313 282.208862,281.131104   C263.291260,301.881622 239.859009,314.486694 212.175156,319.195374   C211.032242,319.389740 209.913147,319.724060 208.375641,319.998383  M274.648560,284.150085   C278.901520,279.460632 283.154449,274.771210 287.407410,270.081757   C275.863708,268.893768 265.233002,268.843353 254.604263,268.964966   C253.429092,268.978394 252.062241,269.740173 251.125870,270.549866   C231.217422,287.765106 208.002411,294.845612 181.955856,293.049530   C157.307953,291.349884 135.979416,282.183044 119.806183,263.185913   C96.540176,235.857559 93.692253,198.296082 118.814331,168.798874   C153.270721,128.341736 220.448700,126.972549 256.049622,165.922714   C261.834015,172.251282 267.387817,174.947067 275.623352,174.100815   C281.596161,173.487061 287.682770,173.980988 294.274933,173.980988   C293.521576,172.279648 293.268311,171.494110 292.854858,170.804581   C270.657776,133.783737 237.121109,115.559181 194.832153,113.210686   C174.905365,112.104065 155.379425,116.345451 136.975967,124.185890   C97.501747,141.003113 75.594170,171.650681 73.586182,213.909485   C71.974274,247.832611 89.368317,274.507874 115.825775,294.782745   C141.511230,314.465973 171.017761,320.708893 202.941742,317.219696   C230.336929,314.225494 254.212708,303.818390 274.648560,284.150085  z" />
<path fill="#F1EA32" stroke="none" d=" M202.975876,110.056473   C201.902740,110.051888 200.829590,110.047302 199.257889,109.761169   C198.567322,109.243248 198.325180,109.082253 198.029266,108.528229   C198.023056,90.568283 198.155960,73.074951 197.921265,55.586540   C197.863632,51.292282 198.873611,49.877583 203.416016,49.921726   C227.402145,50.154831 251.391754,50.031021 275.380157,50.031002   C276.923096,50.031002 278.466034,50.031002 280.008972,50.031002   C271.235046,44.644382 262.393768,40.093887 253.414444,35.834412   C251.107880,34.740265 248.367157,34.046597 245.824158,34.041607   C194.016052,33.939899 142.207718,33.963161 90.399422,33.978275   C89.242241,33.978615 88.085114,34.174919 85.703194,34.390827   C94.193634,38.267033 101.728439,41.067337 108.602974,45.016888   C116.190422,49.376015 124.026649,50.443157 132.519745,50.118294   C142.333969,49.742897 152.178085,50.203136 161.999954,49.946495   C165.932388,49.843742 167.123871,51.000572 167.087280,54.991352   C166.913162,73.979691 167.048431,92.970863 167.073593,111.961021   C165.634872,112.310791 164.196152,112.660561 162.382126,112.515762   C162.005508,95.753120 162.031784,79.484924 161.962708,63.217136   C161.955322,61.479294 161.391586,59.743816 161.085938,58.007240   C159.580811,57.634335 158.078445,56.951847 156.570099,56.938309   C146.073227,56.844086 135.569321,57.087654 125.080566,56.781036   C121.395088,56.673302 117.465813,55.946281 114.126335,54.440712   C94.948265,45.794483 75.913971,36.829346 55.638443,27.418921   C57.989658,27.247896 59.146919,27.090275 60.304214,27.090057   C121.957382,27.078482 183.610626,27.050663 245.263565,27.169790   C248.270737,27.175602 251.534546,27.949615 254.239319,29.267763   C272.236542,38.038540 290.113953,47.055157 307.917816,56.918911   C273.936218,56.918911 239.954605,56.918911 205.519608,57.032280   C204.795013,58.695461 204.295258,60.244213 204.288040,61.795250   C204.216370,77.217911 204.226059,92.640945 203.891983,108.640991   C203.372772,109.497559 203.174316,109.777016 202.975876,110.056473  z" />
<path fill="#FDFDFD" stroke="none" d=" M208.056992,287.534607   C194.390503,291.537872 180.755753,290.796326 166.927734,287.247467   C180.178574,261.457886 193.647263,236.015686 207.115967,210.573486   C207.425995,210.610184 207.736023,210.646866 208.046051,210.683563   C208.046051,236.144333 208.046051,261.605103 208.056992,287.534607  z" />
<path fill="#F3EC32" stroke="none" d=" M191.920105,141.078049   C194.142014,141.168228 196.363937,141.258408 198.812622,141.690781   C187.232971,162.564209 175.426559,183.095444 163.033905,203.532364   C162.299057,201.975922 162.023224,200.513992 162.021164,199.051651   C161.995941,181.031342 162.010727,163.010971 162.015167,144.990616   C163.490631,144.483765 164.966110,143.976929 166.741547,143.879028   C167.041504,157.172180 167.041504,170.056351 167.041504,182.940536   C167.380157,183.062622 167.718796,183.184708 168.057449,183.306793   C176.011673,169.230545 183.965881,155.154297 191.920105,141.078049  z" />
<path fill="#FDF63F" stroke="none" d=" M161.742889,145.033691   C162.010727,163.010971 161.995941,181.031342 162.021164,199.051651   C162.023224,200.513992 162.299057,201.975922 162.753571,203.726074   C162.609329,204.930389 162.159210,205.846664 161.709091,206.762924   C161.434921,206.688629 161.160767,206.614319 160.886597,206.540009   C160.886597,186.665756 160.886597,166.791489 160.859680,146.441833   C161.045380,145.669891 161.257996,145.373337 161.742889,145.033691  z" />
<path fill="#FFF83F" stroke="none" d=" M161.003647,58.469536   C161.391586,59.743816 161.955322,61.479294 161.962708,63.217136   C162.031784,79.484924 162.005508,95.753120 162.008270,112.486298   C161.827362,112.997093 161.645035,113.042778 161.187943,113.024513   C160.915894,94.950989 160.918625,76.941406 161.003647,58.469536  z" />
<path fill="#A7A9AC" stroke="none" d=" M274.395935,284.398315   C254.212708,303.818390 230.336929,314.225494 202.941742,317.219696   C171.017761,320.708893 141.511230,314.465973 115.825775,294.782745   C89.368317,274.507874 71.974274,247.832611 73.586182,213.909485   C75.594170,171.650681 97.501747,141.003113 136.975967,124.185890   C155.379425,116.345451 174.905365,112.104065 194.832153,113.210686   C237.121109,115.559181 270.657776,133.783737 292.854858,170.804581   C293.268311,171.494110 293.521576,172.279648 294.274933,173.980988   C287.682770,173.980988 281.596161,173.487061 275.623352,174.100815   C267.387817,174.947067 261.834015,172.251282 256.049622,165.922714   C220.448700,126.972549 153.270721,128.341736 118.814331,168.798874   C93.692253,198.296082 96.540176,235.857559 119.806183,263.185913   C135.979416,282.183044 157.307953,291.349884 181.955856,293.049530   C208.002411,294.845612 231.217422,287.765106 251.125870,270.549866   C252.062241,269.740173 253.429092,268.978394 254.604263,268.964966   C265.233002,268.843353 275.863708,268.893768 287.407410,270.081757   C283.154449,274.771210 278.901520,279.460632 274.395935,284.398315  z" />
<path fill="#FFF200" stroke="none" d=" M167.494232,111.986679   C167.048431,92.970863 166.913162,73.979691 167.087280,54.991352   C167.123871,51.000572 165.932388,49.843742 161.999954,49.946495   C152.178085,50.203136 142.333969,49.742897 132.519745,50.118294   C124.026649,50.443157 116.190422,49.376015 108.602974,45.016888   C101.728439,41.067337 94.193634,38.267033 85.703194,34.390827   C88.085114,34.174919 89.242241,33.978615 90.399422,33.978275   C142.207718,33.963161 194.016052,33.939899 245.824158,34.041607   C248.367157,34.046597 251.107880,34.740265 253.414444,35.834412   C262.393768,40.093887 271.235046,44.644382 280.008972,50.031002   C278.466034,50.031002 276.923096,50.031002 275.380157,50.031002   C251.391754,50.031021 227.402145,50.154831 203.416016,49.921726   C198.873611,49.877583 197.863632,51.292282 197.921265,55.586540   C198.155960,73.074951 198.023056,90.568283 198.005127,108.733917   C197.984634,109.408020 197.949203,109.820648 197.949203,109.820648   C187.937759,110.551208 177.926331,111.281769 167.494232,111.986679  z" />
<path fill="#FEF201" stroke="none" d=" M191.466431,141.008453   C183.965881,155.154297 176.011673,169.230545 168.057449,183.306793   C167.718796,183.184708 167.380157,183.062622 167.041504,182.940536   C167.041504,170.056351 167.041504,157.172180 167.075119,143.846832   C175.076752,142.583389 183.044754,141.761124 191.466431,141.008453  z" />
<path fill="#FFFA2F" stroke="none" d=" M198.200958,109.882439   C197.949203,109.820648 197.984634,109.408020 198.008774,109.202332   C198.325180,109.082253 198.567322,109.243248 198.862579,109.674988   C198.794785,109.894997 198.623734,109.919617 198.200958,109.882439  z" />
<path fill="#FFFA2F" stroke="none" d=" M203.277985,110.039482   C203.174316,109.777016 203.372772,109.497559 203.804474,109.102173   C203.885178,109.331657 203.732620,109.677078 203.277985,110.039482  z" />
</svg>
